<?xml version="1.0" encoding="utf-8"?>
<!-- Generator: Adobe Illustrator 24.1.0, SVG Export Plug-In . SVG Version: 6.00 Build 0)  -->
<svg version="1.1" id="Livello_1" xmlns="http://www.w3.org/2000/svg" xmlns:xlink="http://www.w3.org/1999/xlink" x="0px" y="0px"
	 viewBox="0 0 1244.7 327.4" style="enable-background:new 0 0 1244.7 327.4;" xml:space="preserve">
<style type="text/css">
	.st0{display:none;}
	.st1{fill:none;stroke:#FFFFFF;stroke-width:4;stroke-miterlimit:10;}
	.st2{fill:#FFFFFF;}
	.st3{font-family:'Georgia';}
	.st4{font-size:36px;}
	.st5{font-family:'Vivaldii';}
	.st6{font-size:150px;}
</style>
<g id="Livello_1_1_" class="st0">
</g>
<g id="DiamanteGrande">
	<polygon class="st1" points="345.2,275.8 468.3,152.2 421.7,118.3 270.4,118.3 223.2,150.9 296.8,226.3 	"/>
	<line class="st1" x1="222.7" y1="152.3" x2="468.7" y2="152.3"/>
	<polyline class="st1" points="270.4,119.1 234.7,150.9 300.5,227.5 257.5,150.9 260,127 	"/>
	<path class="st1" d="M345.3,117.4l0,32L345.2,262c3.4,11.6-0.4,12.4-4.8,1l-9.9-26.6l-34-84.8c-0.2-0.4-0.2-0.9-0.1-1.4l6.1-29.5
		c0.3-1.6,2-2.3,3.2-1.3l39.5,30.1l0,0l39.8-28c1.2-0.8,2.8-0.2,3.1,1.3l6.9,27.4c0.1,0.5,0.1,1-0.1,1.5l-49.8,124.1"/>
	<line class="st1" x1="259.1" y1="150.9" x2="299.8" y2="119.1"/>
	<path class="st1" d="M389.9,119.1l42.7,29.8c0.1,0.1,0.2,0,0.2-0.1l-1.3-20.9c-0.1-1.3,0.2-1.9,1.1-1l23,24l-60,72.1
		c0,0.1-0.1,0-0.1-0.1l37.6-70.4c0.3-0.6-0.4-1.2-0.8-0.7l-71.8,84.6l-15.2-80.4l-14.7,80.4l-73.1-85.5"/>
	<text transform="matrix(1 0 0 1 689.738 90.43)" class="st2 st3 st4">GIOIELLERIA</text>
	<text transform="matrix(1 0 0 1 689.738 90.43)" class="st1 st3 st4">GIOIELLERIA</text>
	<text transform="matrix(1 0 0 1 644.7405 236.4323)" class="st2 st5 st6">Mazzon</text>
	<text transform="matrix(1 0 0 1 644.7405 236.4323)" class="st1 st5 st6">Mazzon</text>
</g>
<g id="Livello_3">
	<polygon class="st1" points="461.5,299.4 556.3,204.3 520.4,178.3 403.9,178.3 367.6,203.4 424.3,261.4 	"/>
	<line class="st1" x1="367.7" y1="204.3" x2="556.7" y2="204.3"/>
	<polyline class="st1" points="403.9,178.8 376.5,203.3 427.2,262.3 394,203.3 396,184.9 	"/>
	<path class="st1" d="M461.6,177.5l0,24.6l-0.1,86.7c2.6,8.9-0.3,9.5-3.7,0.8l-7.6-20.5l-26.2-65.3c-0.1-0.3-0.2-0.7-0.1-1.1
		l4.7-22.7c0.2-1.2,1.5-1.8,2.5-1l30.4,23.2l0,0l30.6-21.5c0.9-0.6,2.1-0.1,2.4,1l5.3,21.1c0.1,0.4,0.1,0.8-0.1,1.1l-38.3,95.6"/>
	<line class="st1" x1="395.2" y1="203.3" x2="426.6" y2="178.8"/>
	<path class="st1" d="M496,178.8l32.9,22.9c0.1,0.1,0.2,0,0.2-0.1l-1-16.1c-0.1-1,0.2-1.5,0.8-0.8l17.8,18.5l-46.2,55.5
		c0,0-0.1,0-0.1,0l29-54.2c0.2-0.5-0.3-0.9-0.7-0.5l-55.3,65.1l-11.7-61.9l-11.3,61.9L394,203.3"/>
</g>
<g id="Livello_4">
	<polygon class="st1" points="230.5,299.4 325.3,204.3 289.4,178.3 172.9,178.3 136.6,203.4 193.3,261.4 	"/>
	<line class="st1" x1="136.7" y1="204.3" x2="325.7" y2="204.3"/>
	<polyline class="st1" points="172.9,178.8 145.4,203.3 196.1,262.3 163,203.3 164.9,184.9 	"/>
	<path class="st1" d="M230.6,177.5l0,24.6l-0.1,86.7c2.6,8.9-0.3,9.5-3.7,0.8l-7.6-20.5L193,203.8c-0.1-0.3-0.2-0.7-0.1-1.1
		l4.7-22.7c0.2-1.2,1.6-1.8,2.5-1l30.4,23.2l0,0l30.6-21.5c0.9-0.6,2.1-0.1,2.4,1l5.3,21.1c0.1,0.4,0.1,0.8-0.1,1.1l-38.3,95.6"/>
	<line class="st1" x1="164.2" y1="203.3" x2="195.6" y2="178.8"/>
	<path class="st1" d="M264.9,178.8l32.9,22.9c0.1,0.1,0.2,0,0.2-0.1l-1-16.1c-0.1-1,0.2-1.5,0.8-0.8l17.8,18.5l-46.2,55.5
		c0,0-0.1,0-0.1,0l29-54.2c0.2-0.5-0.3-0.9-0.6-0.5l-55.3,65.1l-11.7-61.9l-11.3,61.9L163,203.3"/>
</g>
<g id="Livello_5">
</g>
<g id="Livello_6">
	<g>
		<g>
			<polygon class="st1" points="95.1,293.4 108.6,281.2 103.5,278.1 86.9,278.1 81.7,281.1 89.8,288.5 			"/>
			<line class="st1" x1="82" y1="281.1" x2="109" y2="281.1"/>
			<polyline class="st1" points="86.9,277.6 83,280.8 90.2,288.5 85.5,280.8 85.7,278.4 			"/>
			<path class="st1" d="M95.1,277.4v3.2l0,11.3c0.4,1.2,0,1.2-0.5,0.1l-1.1-2.7l-3.7-8.6c0,0,0-0.1,0-0.1l0.7-3
				c0-0.2,0.2-0.2,0.3-0.1l4.3,3l0,0l4.4-2.8c0.1-0.1,0.3,0,0.3,0.1l0.8,2.8c0,0,0,0.1,0,0.1l-5.5,12.5"/>
			<line class="st1" x1="85.6" y1="280.8" x2="90.1" y2="277.6"/>
			<path class="st1" d="M100,277.6l4.7,3c0,0,0,0,0,0l-0.1-2.1c0-0.1,0-0.2,0.1-0.1l2.5,2.4l-6.6,7.3c0,0,0,0,0,0l4.1-7.1
				c0-0.1-0.1-0.1-0.1-0.1l-7.9,8.5l-1.7-8.1l-1.6,8.1l-8-8.6"/>
		</g>
		<g>
			<polygon class="st1" points="100.7,234.9 114.2,222.8 109.1,219.7 92.5,219.7 87.4,222.6 95.4,230.1 			"/>
			<line class="st1" x1="87.6" y1="222.7" x2="114.6" y2="222.7"/>
			<polyline class="st1" points="92.5,219.1 88.6,222.3 95.8,230 91.1,222.3 91.4,219.9 			"/>
			<path class="st1" d="M100.8,218.9v3.2l0,11.4c0.4,1.2,0,1.2-0.5,0.1l-1.1-2.7l-3.7-8.6c0,0,0-0.1,0-0.1l0.7-3
				c0-0.2,0.2-0.2,0.3-0.1l4.3,3l0,0l4.4-2.8c0.1-0.1,0.3,0,0.3,0.1l0.8,2.8c0,0.1,0,0.1,0,0.1l-5.5,12.5"/>
			<line class="st1" x1="91.3" y1="222.3" x2="95.8" y2="219.1"/>
			<path class="st1" d="M105.6,219.1l4.7,3c0,0,0,0,0,0l-0.1-2.1c0-0.1,0-0.2,0.1-0.1l2.5,2.4l-6.6,7.3c0,0,0,0,0,0l4.1-7.1
				c0-0.1-0.1-0.1-0.1-0.1l-7.9,8.5l-1.7-8.1l-1.6,8.1l-8-8.6"/>
		</g>
		<g>
			<polygon class="st1" points="116.7,184.4 130.2,172.3 125.1,169.2 108.5,169.2 103.4,172.2 111.4,179.6 			"/>
			<line class="st1" x1="103.6" y1="172.2" x2="130.6" y2="172.2"/>
			<polyline class="st1" points="108.5,168.6 104.6,171.8 111.8,179.6 107.1,171.8 107.4,169.4 			"/>
			<path class="st1" d="M116.8,168.5v3.2l0,11.4c0.4,1.2,0,1.2-0.5,0.1l-1.1-2.7l-3.7-8.6c0,0,0-0.1,0-0.1l0.7-3
				c0-0.2,0.2-0.2,0.3-0.1l4.3,3l0,0l4.4-2.8c0.1-0.1,0.3,0,0.3,0.1l0.8,2.8c0,0.1,0,0.1,0,0.1l-5.5,12.5"/>
			<line class="st1" x1="107.3" y1="171.8" x2="111.8" y2="168.6"/>
			<path class="st1" d="M121.6,168.6l4.7,3c0,0,0,0,0,0l-0.1-2.1c0-0.1,0-0.2,0.1-0.1l2.5,2.4l-6.6,7.3c0,0,0,0,0,0l4.1-7.1
				c0-0.1-0.1-0.1-0.1-0.1l-7.9,8.5l-1.7-8.1l-1.6,8.1l-8-8.6"/>
		</g>
		<g>
			<polygon class="st1" points="141.6,141.9 155.1,129.8 150,126.7 133.4,126.7 128.2,129.7 136.3,137.1 			"/>
			<line class="st1" x1="128.5" y1="129.7" x2="155.5" y2="129.7"/>
			<polyline class="st1" points="133.4,126.1 129.5,129.3 136.7,137.1 132,129.3 132.2,126.9 			"/>
			<path class="st1" d="M141.6,126v3.2l0,11.4c0.4,1.2,0,1.2-0.5,0.1L140,138l-3.7-8.6c0,0,0-0.1,0-0.1l0.7-3c0-0.2,0.2-0.2,0.4-0.1
				l4.3,3l0,0l4.4-2.8c0.1-0.1,0.3,0,0.3,0.1l0.8,2.8c0,0.1,0,0.1,0,0.1l-5.5,12.5"/>
			<line class="st1" x1="132.1" y1="129.3" x2="136.6" y2="126.1"/>
			<path class="st1" d="M146.5,126.1l4.7,3c0,0,0,0,0,0l-0.1-2.1c0-0.1,0-0.2,0.1-0.1l2.5,2.4l-6.6,7.3c0,0,0,0,0,0l4.1-7.1
				c0-0.1-0.1-0.1-0.1-0.1l-7.9,8.5l-1.7-8.1L140,138l-8-8.6"/>
		</g>
		<g>
			<polygon class="st1" points="173.8,107.4 187.3,95.2 182.2,92.1 165.6,92.1 160.4,95.1 168.5,102.5 			"/>
			<line class="st1" x1="160.7" y1="95.1" x2="187.7" y2="95.1"/>
			<polyline class="st1" points="165.6,91.6 161.7,94.8 168.9,102.5 164.2,94.8 164.5,92.4 			"/>
			<path class="st1" d="M173.8,91.4v3.2l0,11.3c0.4,1.2,0,1.2-0.5,0.1l-1.1-2.7l-3.7-8.6c0,0,0-0.1,0-0.1l0.7-3
				c0-0.2,0.2-0.2,0.4-0.1l4.3,3l0,0l4.4-2.8c0.1-0.1,0.3,0,0.3,0.1l0.8,2.8c0,0.1,0,0.1,0,0.2l-5.5,12.5"/>
			<line class="st1" x1="164.4" y1="94.8" x2="168.9" y2="91.6"/>
			<path class="st1" d="M178.7,91.6l4.7,3c0,0,0,0,0,0l-0.1-2.1c0-0.1,0-0.2,0.1-0.1l2.5,2.4l-6.6,7.3c0,0,0,0,0,0l4.1-7.1
				c0-0.1-0.1-0.1-0.1-0.1l-7.9,8.5l-1.7-8.1l-1.6,8.1l-8-8.6"/>
		</g>
		<g>
			<polygon class="st1" points="212,80.7 225.5,68.5 220.4,65.4 203.8,65.4 198.6,68.4 206.7,75.8 			"/>
			<line class="st1" x1="198.9" y1="68.4" x2="225.9" y2="68.4"/>
			<polyline class="st1" points="203.8,64.9 199.9,68.1 207.1,75.8 202.4,68.1 202.6,65.7 			"/>
			<path class="st1" d="M212,64.7v3.2l0,11.3c0.4,1.2,0,1.2-0.5,0.1l-1.1-2.7l-3.7-8.6c0,0,0-0.1,0-0.1l0.7-3c0-0.2,0.2-0.2,0.4-0.1
				l4.3,3l0,0l4.4-2.8c0.1-0.1,0.3,0,0.3,0.1l0.8,2.8c0,0.1,0,0.1,0,0.2L212,80.7"/>
			<line class="st1" x1="202.5" y1="68.1" x2="207" y2="64.9"/>
			<path class="st1" d="M216.9,64.9l4.7,3c0,0,0,0,0,0l-0.1-2.1c0-0.1,0-0.2,0.1-0.1l2.5,2.4l-6.6,7.3c0,0,0,0,0,0l4.1-7.1
				c0-0.1-0.1-0.1-0.1-0.1l-7.9,8.5l-1.7-8.1l-1.6,8.1l-8-8.6"/>
		</g>
		<g>
			<polygon class="st1" points="254.6,61.8 268,49.7 262.9,46.6 246.3,46.6 241.2,49.6 249.2,57 			"/>
			<line class="st1" x1="241.4" y1="49.6" x2="268.4" y2="49.6"/>
			<polyline class="st1" points="246.3,46 242.4,49.2 249.6,57 244.9,49.2 245.2,46.8 			"/>
			<path class="st1" d="M254.6,45.9v3.2l0,11.4c0.4,1.2,0,1.2-0.5,0.1l-1.1-2.7l-3.7-8.6c0,0,0-0.1,0-0.1l0.7-3
				c0-0.2,0.2-0.2,0.4-0.1l4.3,3l0,0l4.4-2.8c0.1-0.1,0.3,0,0.3,0.1l0.8,2.8c0,0,0,0.1,0,0.2l-5.5,12.5"/>
			<line class="st1" x1="245.1" y1="49.2" x2="249.6" y2="46"/>
			<path class="st1" d="M259.5,46l4.7,3c0,0,0,0,0,0l-0.1-2.1c0-0.1,0-0.2,0.1-0.1l2.5,2.4l-6.6,7.3c0,0,0,0,0,0l4.1-7.1
				c0-0.1,0-0.1-0.1-0.1l-7.9,8.5l-1.7-8.1l-1.6,8.1l-8-8.6"/>
		</g>
		<g>
			<polygon class="st1" points="300.1,50.8 313.6,38.6 308.5,35.5 291.9,35.5 286.7,38.5 294.8,45.9 			"/>
			<line class="st1" x1="287" y1="38.5" x2="314" y2="38.5"/>
			<polyline class="st1" points="291.9,35 288,38.2 295.2,45.9 290.5,38.2 290.7,35.8 			"/>
			<path class="st1" d="M300.1,34.8V38l0,11.3c0.4,1.2,0,1.2-0.5,0.1l-1.1-2.7l-3.7-8.6c0,0,0-0.1,0-0.1l0.7-3
				c0-0.2,0.2-0.2,0.4-0.1l4.3,3l0,0l4.4-2.8c0.1-0.1,0.3,0,0.3,0.1l0.8,2.8c0,0,0,0.1,0,0.2l-5.5,12.5"/>
			<line class="st1" x1="290.6" y1="38.2" x2="295.1" y2="35"/>
			<path class="st1" d="M305,35l4.7,3c0,0,0,0,0,0l-0.1-2.1c0-0.1,0-0.2,0.1-0.1l2.5,2.4l-6.6,7.3c0,0,0,0,0,0l4.1-7.1
				c0-0.1,0-0.1-0.1-0.1l-7.9,8.5l-1.7-8.1l-1.6,8.1l-8-8.6"/>
		</g>
		<g>
			<polygon class="st1" points="347.1,47.5 360.6,35.3 355.5,32.2 338.9,32.2 333.7,35.2 341.8,42.6 			"/>
			<line class="st1" x1="334" y1="35.2" x2="361" y2="35.2"/>
			<polyline class="st1" points="338.9,31.7 335,34.9 342.2,42.6 337.5,34.9 337.7,32.5 			"/>
			<path class="st1" d="M347.1,31.5v3.2l0,11.3c0.4,1.2,0,1.2-0.5,0.1l-1.1-2.7l-3.7-8.6c0,0,0-0.1,0-0.1l0.7-3
				c0-0.2,0.2-0.2,0.4-0.1l4.3,3l0,0l4.4-2.8c0.1-0.1,0.3,0,0.3,0.1l0.8,2.8c0,0,0,0.1,0,0.2l-5.5,12.5"/>
			<line class="st1" x1="337.6" y1="34.9" x2="342.1" y2="31.7"/>
			<path class="st1" d="M352,31.7l4.7,3c0,0,0,0,0,0l-0.1-2.1c0-0.1,0-0.2,0.1-0.1l2.5,2.4l-6.6,7.3c0,0,0,0,0,0l4.1-7.1
				c0-0.1,0-0.1-0.1-0.1l-7.9,8.5l-1.7-8.1l-1.6,8.1l-8-8.6"/>
		</g>
		<g>
			<polygon class="st1" points="394.1,51.8 407.6,39.7 402.5,36.6 385.9,36.6 380.7,39.6 388.8,47 			"/>
			<line class="st1" x1="381" y1="39.6" x2="408" y2="39.6"/>
			<polyline class="st1" points="385.9,36 382,39.3 389.2,47 384.5,39.3 384.8,36.8 			"/>
			<path class="st1" d="M394.1,35.9v3.2l0,11.3c0.4,1.2,0,1.2-0.5,0.1l-1.1-2.7l-3.7-8.6c0,0,0-0.1,0-0.1l0.7-3
				c0-0.2,0.2-0.2,0.4-0.1l4.3,3l0,0l4.4-2.8c0.1-0.1,0.3,0,0.3,0.1l0.8,2.8c0,0,0,0.1,0,0.2l-5.5,12.5"/>
			<line class="st1" x1="384.6" y1="39.3" x2="389.1" y2="36"/>
			<path class="st1" d="M399,36l4.7,3c0,0,0,0,0,0l-0.1-2.1c0-0.1,0-0.2,0.1-0.1l2.5,2.4l-6.6,7.3c0,0,0,0,0,0l4.1-7.1
				c0-0.1,0-0.1-0.1-0.1l-7.9,8.5l-1.7-8.1l-1.6,8.1l-8-8.6"/>
		</g>
		<g>
			<polygon class="st1" points="439.6,63.9 453.1,51.8 448,48.7 431.4,48.7 426.2,51.6 434.3,59.1 			"/>
			<line class="st1" x1="426.5" y1="51.7" x2="453.5" y2="51.7"/>
			<polyline class="st1" points="431.4,48.1 427.5,51.3 434.7,59 430,51.3 430.3,48.9 			"/>
			<path class="st1" d="M439.6,47.9v3.2l0,11.4c0.4,1.2,0,1.2-0.5,0.1l-1.1-2.7l-3.7-8.6c0,0,0-0.1,0-0.1l0.7-3
				c0-0.2,0.2-0.2,0.4-0.1l4.3,3l0,0l4.4-2.8c0.1-0.1,0.3,0,0.3,0.1l0.8,2.8c0,0,0,0.1,0,0.2l-5.5,12.5"/>
			<line class="st1" x1="430.2" y1="51.3" x2="434.6" y2="48.1"/>
			<path class="st1" d="M444.5,48.1l4.7,3c0,0,0,0,0,0l-0.1-2.1c0-0.1,0-0.2,0.1-0.1l2.5,2.4l-6.6,7.3c0,0,0,0,0,0l4.1-7.1
				c0-0.1,0-0.1-0.1-0.1l-7.9,8.5l-1.7-8.1l-1.6,8.1l-8-8.6"/>
		</g>
		<g>
			<polygon class="st1" points="482.2,83.6 495.7,71.4 490.6,68.3 474,68.3 468.8,71.3 476.9,78.7 			"/>
			<line class="st1" x1="469.1" y1="71.3" x2="496.1" y2="71.3"/>
			<polyline class="st1" points="474,67.8 470.1,71 477.3,78.7 472.6,71 472.9,68.6 			"/>
			<path class="st1" d="M482.2,67.6v3.2l0,11.3c0.4,1.2,0,1.2-0.5,0.1l-1.1-2.7l-3.7-8.6c0,0,0-0.1,0-0.1l0.7-3
				c0-0.2,0.2-0.2,0.4-0.1l4.3,3l0,0l4.4-2.8c0.1-0.1,0.3,0,0.3,0.1l0.8,2.8c0,0.1,0,0.1,0,0.2l-5.5,12.5"/>
			<line class="st1" x1="472.7" y1="71" x2="477.2" y2="67.8"/>
			<path class="st1" d="M487.1,67.8l4.7,3c0,0,0,0,0,0l-0.1-2.1c0-0.1,0-0.2,0.1-0.1l2.5,2.4l-6.6,7.3c0,0,0,0,0,0l4.1-7.1
				c0-0.1,0-0.1-0.1-0.1l-7.9,8.5l-1.7-8.1l-1.6,8.1l-8-8.6"/>
		</g>
		<g>
			<polygon class="st1" points="520.3,110.8 533.8,98.6 528.7,95.5 512.1,95.5 507,98.5 515,105.9 			"/>
			<line class="st1" x1="507.2" y1="98.5" x2="534.2" y2="98.5"/>
			<polyline class="st1" points="512.1,95 508.2,98.2 515.4,105.9 510.7,98.2 511,95.8 			"/>
			<path class="st1" d="M520.3,94.8V98l0,11.3c0.4,1.2,0,1.2-0.5,0.1l-1.1-2.7l-3.7-8.6c0,0,0-0.1,0-0.1l0.7-3
				c0-0.2,0.2-0.2,0.3-0.1l4.3,3l0,0l4.4-2.8c0.1-0.1,0.3,0,0.3,0.1l0.8,2.8c0,0.1,0,0.1,0,0.2l-5.5,12.5"/>
			<line class="st1" x1="510.9" y1="98.2" x2="515.3" y2="95"/>
			<path class="st1" d="M525.2,95l4.7,3c0,0,0,0,0,0l-0.1-2.1c0-0.1,0-0.2,0.1-0.1l2.5,2.4l-6.6,7.3c0,0,0,0,0,0l4.1-7.1
				c0-0.1,0-0.1-0.1-0.1l-7.9,8.5l-1.7-8.1l-1.6,8.1l-8-8.6"/>
		</g>
		<g>
			<polygon class="st1" points="552.6,145.5 566.1,133.4 561,130.3 544.4,130.3 539.2,133.2 547.3,140.7 			"/>
			<line class="st1" x1="539.5" y1="133.3" x2="566.5" y2="133.3"/>
			<polyline class="st1" points="544.4,129.7 540.5,132.9 547.7,140.6 543,132.9 543.2,130.5 			"/>
			<path class="st1" d="M552.6,129.5v3.2l0,11.4c0.4,1.2,0,1.2-0.5,0.1l-1.1-2.7l-3.7-8.6c0,0,0-0.1,0-0.1l0.7-3
				c0-0.2,0.2-0.2,0.3-0.1l4.3,3l0,0l4.4-2.8c0.1-0.1,0.3,0,0.3,0.1l0.8,2.8c0,0.1,0,0.1,0,0.1l-5.5,12.5"/>
			<line class="st1" x1="543.1" y1="132.9" x2="547.6" y2="129.7"/>
			<path class="st1" d="M557.5,129.7l4.7,3c0,0,0,0,0,0l-0.1-2.1c0-0.1,0-0.2,0.1-0.1l2.5,2.4l-6.6,7.3c0,0,0,0,0,0l4.1-7.1
				c0-0.1,0-0.1-0.1-0.1l-7.9,8.5l-1.7-8.1l-1.6,8.1l-8-8.6"/>
		</g>
		<g>
			<polygon class="st1" points="577.4,187.7 590.9,175.6 585.8,172.5 569.2,172.5 564,175.4 572.1,182.9 			"/>
			<line class="st1" x1="564.3" y1="175.5" x2="591.3" y2="175.5"/>
			<polyline class="st1" points="569.2,171.9 565.3,175.1 572.5,182.9 567.8,175.1 568.1,172.7 			"/>
			<path class="st1" d="M577.4,171.8v3.2l0,11.4c0.4,1.2,0,1.2-0.5,0.1l-1.1-2.7l-3.7-8.6c0,0,0-0.1,0-0.1l0.7-3
				c0-0.2,0.2-0.2,0.3-0.1l4.3,3l0,0l4.4-2.8c0.1-0.1,0.3,0,0.3,0.1l0.8,2.8c0,0.1,0,0.1,0,0.1l-5.5,12.5"/>
			<line class="st1" x1="568" y1="175.1" x2="572.5" y2="171.9"/>
			<path class="st1" d="M582.3,171.9l4.7,3c0,0,0,0,0,0l-0.1-2.1c0-0.1,0-0.2,0.1-0.1l2.5,2.4l-6.6,7.3c0,0,0,0,0,0l4.1-7.1
				c0-0.1,0-0.1-0.1-0.1l-7.9,8.5l-1.7-8.1l-1.6,8.1l-8-8.6"/>
		</g>
		<g>
			<polygon class="st1" points="593.4,237.4 606.9,225.2 601.8,222.1 585.2,222.1 580,225.1 588.1,232.5 			"/>
			<line class="st1" x1="580.3" y1="225.1" x2="607.3" y2="225.1"/>
			<polyline class="st1" points="585.2,221.6 581.3,224.8 588.5,232.5 583.8,224.8 584.1,222.4 			"/>
			<path class="st1" d="M593.4,221.4v3.2l0,11.4c0.4,1.2,0,1.2-0.5,0.1l-1.1-2.7l-3.7-8.6c0,0,0-0.1,0-0.1l0.7-3
				c0-0.2,0.2-0.2,0.3-0.1l4.3,3l0,0l4.4-2.8c0.1-0.1,0.3,0,0.3,0.1l0.8,2.8c0,0.1,0,0.1,0,0.1l-5.5,12.5"/>
			<line class="st1" x1="584" y1="224.8" x2="588.4" y2="221.6"/>
			<path class="st1" d="M598.3,221.6l4.7,3c0,0,0,0,0,0l-0.1-2.1c0-0.1,0-0.2,0.1-0.1l2.5,2.4L599,232c0,0,0,0,0,0l4.1-7.1
				c0-0.1,0-0.1-0.1-0.1l-7.9,8.5l-1.7-8.1l-1.6,8.1l-8-8.6"/>
		</g>
		<g>
			<polygon class="st1" points="599.1,294.4 612.6,282.2 607.5,279.1 590.9,279.1 585.7,282.1 593.8,289.5 			"/>
			<line class="st1" x1="586" y1="282.1" x2="613" y2="282.1"/>
			<polyline class="st1" points="590.9,278.6 587,281.8 594.2,289.5 589.5,281.8 589.7,279.4 			"/>
			<path class="st1" d="M599.1,278.4v3.2l0,11.3c0.4,1.2,0,1.2-0.5,0.1l-1.1-2.7l-3.7-8.6c0,0,0-0.1,0-0.1l0.7-3
				c0-0.2,0.2-0.2,0.3-0.1l4.3,3l0,0l4.4-2.8c0.1-0.1,0.3,0,0.3,0.1l0.8,2.8c0,0,0,0.1,0,0.1l-5.5,12.5"/>
			<line class="st1" x1="589.6" y1="281.8" x2="594.1" y2="278.6"/>
			<path class="st1" d="M604,278.6l4.7,3c0,0,0,0,0,0l-0.1-2.1c0-0.1,0-0.2,0.1-0.1l2.5,2.4l-6.6,7.3c0,0,0,0,0,0l4.1-7.1
				c0-0.1,0-0.1-0.1-0.1l-7.9,8.5l-1.7-8.1l-1.6,8.1l-8-8.6"/>
		</g>
	</g>
</g>
</svg>
